<svg version="1.0" xmlns="http://www.w3.org/2000/svg"
 width="360.000000pt" height="360.000000pt" viewBox="0 0 360.000000 360.000000"
 preserveAspectRatio="xMidYMid meet">
<g transform="translate(0.000000,360.000000) scale(0.100000,-0.100000)"
fill="currentColor" stroke="none">
<path d="M2392 2680 c-132 -28 -217 -154 -210 -310 3 -65 9 -88 46 -162 45
-93 49 -114 29 -143 -12 -16 -10 -23 25 -58 21 -22 37 -42 35 -44 -2 -2 -33
10 -68 27 -78 37 -143 39 -280 11 -135 -28 -242 -69 -519 -196 -248 -114 -370
-166 -425 -180 l-30 -7 37 -32 c44 -38 96 -56 164 -56 27 0 58 -7 68 -15 10
-8 49 -25 85 -37 62 -22 81 -23 336 -23 249 0 313 5 390 30 18 6 17 4 -3 -14
-61 -53 -295 -92 -429 -71 -43 6 -109 14 -148 17 -94 6 -197 28 -248 52 -23
10 -74 24 -114 31 -49 8 -86 21 -117 41 -41 28 -53 30 -165 36 -139 7 -141 6
-87 -68 75 -101 257 -189 431 -208 50 -6 127 -26 207 -54 105 -37 287 -86 384
-103 19 -3 22 -13 28 -84 7 -92 12 -107 36 -120 9 -5 76 -14 149 -21 114 -10
134 -10 147 3 13 12 11 19 -14 54 -45 62 -69 74 -128 63 -27 -5 -64 -11 -81
-14 l-33 -6 0 66 0 65 34 0 c90 0 280 51 382 103 148 75 298 259 348 426 33
113 13 213 -67 331 -28 41 -68 100 -88 131 -21 30 -44 76 -51 102 -11 43 -10
49 8 74 12 16 48 43 80 61 32 18 69 45 81 60 26 31 31 12 8 -28 -8 -14 -14
-28 -15 -32 0 -11 101 -31 158 -30 54 0 105 24 105 47 0 6 -20 20 -44 33 -73
39 -108 71 -152 138 -33 50 -53 70 -92 89 -58 28 -131 38 -193 25z"/>
</g>
</svg>
